PathFileType        4      (X/Y/Z)      Flexion.trc         																																																																												
DataRate	CameraRate	NumFrames	NumMarkers	Units	OrigDataRate	OrigDataStartFrame	OrigNumFrames																																																																					
100	100	7	25	mm	100	395	1053																																																																					
Frame#	Time	AA			AI			Ant_Sh			CV7			GH			LAH			Lat_Sh			LCAJ			LPH			Post_Sh			RAH			RCAJ			RHLE			RHME			RPH			RUA			SJN			SXS			TS			TV8			centelbow			centpxt8			centijc7			centLPHRPH			ScapulaThoracicContactPt		
		X1	Y1	Z1	X2	Y2	Z2	X3	Y3	Z3	X4	Y4	Z4	X5	Y5	Z5	X6	Y6	Z6	X7	Y7	Z7	X8	Y8	Z8	X9	Y9	Z9	X10	Y10	Z10	X11	Y11	Z11	X12	Y12	Z12	X13	Y13	Z13	X14	Y14	Z14	X15	Y15	Z15	X16	Y16	Z16	X17	Y17	Z17	X18	Y18	Z18	X19	Y19	Z19	X20	Y20	Z20	X21	Y21	Z21	X22	Y22	Z22	X23	Y23	Z23	X24	Y24	Z24	X25	Y25	Z25
395	3.94	-855.3902588	1551.51416	-392.4290466	-913.4745483	1368.177368	-446.0049133	-745.5651855	1560.424438	-451.9916382	-913.1218872	1593.213135	-586.2503052	-793.0908813	1538.338135	-421.7029724	-704.1110229	1778.793213	-630.0706177	-792.2156982	1570.342896	-396.9918213	-857.6096802	1563.322998	-774.3800659	-906.1358643	1723.805664	-644.5922241	-863.4246216	1505.652222	-376.87854	-708.3451538	1774.816528	-532.286499	-826.5913696	1577.805176	-445.7247009	-538.0040283	1508.635254	-313.0453186	-514.5068359	1412.214233	-379.2397766	-905.7768555	1722.724487	-529.315979	-699.8327026	1449.075562	-329.0733337	-743.1582642	1513.834839	-604.3735352	-684.9363403	1339.095825	-607.8915405	-945.8760376	1499.347412	-481.7860107	-915.9671021	1304.43103	-601.4471436	-526.2554321	1460.424744	-346.1425476	-800.4517212	1321.763428	-604.669342	-828.1400757	1553.523987	-595.3119202	-905.9563599	1723.265076	-586.9541016	-904.9136149	1473.01298	-440.0733236
396	3.95	-854.6711426	1552.138916	-392.4084778	-912.5782471	1368.348389	-445.2433777	-745.447876	1561.867554	-452.9839783	-913.1530151	1593.102783	-585.6459961	-792.565918	1539.448364	-422.1114197	-704.3151245	1778.945435	-629.6314697	-792.0950928	1572.120361	-397.6668701	-857.8743896	1563.4375	-773.99823	-906.3197632	1723.732056	-643.9946899	-862.3151855	1506.260742	-376.4104309	-708.482605	1774.964966	-531.8528442	-826.5556641	1578.115479	-446.0507812	-536.7525024	1516.015381	-315.1271362	-511.4616394	1419.859741	-380.8182068	-905.8223877	1722.606323	-528.7437134	-697.5793457	1453.139893	-329.6288757	-743.1540527	1514.029419	-604.3082275	-684.6724854	1339.732056	-608.0619507	-945.4561157	1499.231567	-480.8208313	-915.8701172	1304.429077	-601.1484985	-524.1070709	1467.937561	-347.9726715	-800.2713013	1322.080566	-604.6052246	-828.1535339	1553.566101	-594.9771118	-906.0710754	1723.169189	-586.3692017	-904.2351685	1473.239624	-439.4908956
397	3.96	-854.0696411	1552.752075	-392.4312744	-911.6382446	1368.426392	-444.4788513	-745.3831177	1563.389893	-453.8379211	-913.1264648	1593.028809	-585.1672974	-792.2015991	1540.571289	-422.3271179	-704.4869995	1779.180786	-629.1806641	-791.9490967	1573.318481	-398.2378845	-858.1210938	1563.539307	-773.651001	-906.5231323	1723.716431	-643.4135742	-861.2307739	1506.927368	-375.8676453	-708.6012573	1775.061157	-531.3773193	-826.5267334	1578.476929	-446.2701111	-535.6560669	1523.150024	-316.9082642	-508.8688354	1427.336914	-382.3850098	-905.8811035	1722.478027	-528.286438	-695.3537598	1456.969116	-330.4020081	-743.1343994	1514.13916	-604.2514648	-684.4885864	1339.8573	-608.1464844	-945.0810547	1499.18396	-480.0250854	-915.7524414	1304.442749	-600.911499	-522.2624512	1475.243469	-349.646637	-800.1205139	1322.150024	-604.5289917	-828.1304321	1553.583984	-594.7093811	-906.2021179	1723.097229	-585.8500061	-903.5963135	1473.454142	-438.9784037
398	3.97	-853.4857788	1553.376709	-392.3638611	-910.8331299	1368.621338	-443.9333801	-745.3627319	1564.889526	-454.7566223	-913.0651245	1592.985107	-584.6694336	-791.7872314	1541.766846	-422.6977539	-704.6641846	1779.403687	-628.7077026	-791.8427124	1574.86145	-398.9083557	-858.4033203	1563.635498	-773.312561	-906.6742554	1723.713013	-642.8571777	-860.2601318	1507.662476	-375.4131775	-708.7095337	1775.071289	-531.0275269	-826.4697266	1578.834473	-446.5552979	-534.8449097	1530.016846	-318.7900696	-506.451416	1434.440796	-383.9272461	-905.9384155	1722.340942	-527.7526245	-693.4550781	1460.767822	-331.1814575	-743.0771484	1514.294556	-604.1633911	-684.2859497	1339.985107	-608.1780396	-944.7402954	1499.066406	-479.3445129	-915.5809326	1304.508911	-600.7041626	-520.6481628	1482.228821	-351.3586578	-799.9334412	1322.247009	-604.4411011	-828.0711365	1553.639832	-594.4164124	-906.3063354	1723.026978	-585.3049011	-903.0197347	1473.688151	-438.5472514
399	3.98	-853.1323242	1554.093018	-392.5420227	-910.1090698	1368.906982	-443.2296448	-745.4102783	1566.117554	-455.6486511	-913.0502319	1592.935425	-584.2160645	-791.538269	1542.763062	-423.0304565	-704.8345337	1779.556885	-628.3323364	-791.8208618	1576.070557	-399.5819092	-858.5969849	1563.769043	-772.9827881	-906.7913818	1723.74585	-642.2578735	-859.3782959	1508.415649	-375.0591125	-708.7380981	1775.062378	-530.6762695	-826.428894	1579.12207	-446.8890076	-533.3268433	1536.481567	-321.0429993	-504.3000793	1441.290771	-385.4501038	-906.0103149	1722.220947	-527.1884766	-691.6552734	1464.363281	-331.7870178	-743.0692749	1514.423218	-604.1038818	-684.0865479	1340.163696	-608.2709351	-944.3413696	1498.959595	-478.5146179	-915.4559326	1304.559692	-600.421814	-518.8134613	1488.886169	-353.2465515	-799.7712402	1322.361694	-604.3463745	-828.0597534	1553.679321	-594.1599731	-906.4008484	1722.983398	-584.723175	-902.5275879	1473.986532	-438.0954285
400	3.99	-852.7131348	1554.693359	-392.5788574	-909.3471069	1369.095947	-442.3917542	-745.3961792	1567.430054	-456.5092468	-913.0298462	1592.858032	-583.8547363	-791.2922363	1543.717041	-423.3409729	-704.9369507	1779.725342	-627.9180298	-791.9401245	1577.244507	-400.2676697	-858.7780151	1563.932373	-772.6652832	-906.8599243	1723.744019	-641.7619019	-858.4887085	1508.998779	-374.7792969	-708.7484131	1775.076904	-530.2564087	-826.3970337	1579.44873	-447.2639771	-532.7338257	1542.766846	-322.8071594	-502.3836365	1447.998413	-387.066925	-906.0285645	1722.130371	-526.6983643	-689.8791504	1467.65625	-332.407196	-742.9714966	1514.613892	-604.0830688	-683.8365479	1340.374634	-608.348877	-943.9570313	1498.89563	-477.6998291	-915.3078003	1304.533447	-600.2086792	-517.5587311	1495.382629	-354.9370422	-799.5721741	1322.454041	-604.2787781	-828.0006714	1553.735962	-593.9689026	-906.4442444	1722.937195	-584.2301331	-902.0057576	1474.228312	-437.5568136
401	4	-852.2614136	1555.180542	-392.6327515	-908.6176147	1369.168579	-441.7349548	-745.4920654	1568.61499	-457.1841736	-912.9645386	1592.783569	-583.5111084	-790.958374	1544.674927	-423.6558838	-705.053894	1779.836548	-627.5356445	-791.9711304	1578.483032	-400.8893433	-858.9827881	1563.998169	-772.3607178	-906.9451904	1723.771973	-641.3259277	-857.5927124	1509.588867	-374.5175781	-708.765564	1775.094116	-529.9638062	-826.3877563	1579.718872	-447.5436096	-532.3462524	1548.708496	-324.4239502	-500.2583618	1453.252197	-388.9234924	-906.0373535	1722.035889	-526.1708984	-688.4796753	1470.891846	-333.0030212	-742.8970337	1514.745605	-604.0334473	-683.6689453	1340.476074	-608.4955444	-943.6196289	1498.782837	-477.0541687	-915.1459961	1304.53479	-600.0162354	-516.3023071	1500.980347	-356.6737213	-799.4074707	1322.505432	-604.2558899	-827.9307861	1553.764587	-593.7722778	-906.491272	1722.903931	-583.7484131	-901.4995524	1474.377319	-437.140625
